<?xml version="1.0" encoding="utf-8"?>
<svg version="1.1" xmlns:xlink="http://www.w3.org/1999/xlink" width="40px" height="50px" xmlns="http://www.w3.org/2000/svg">
  <defs>
    <filter x="99px" y="55px" width="40px" height="50px" filterUnits="userSpaceOnUse" id="filter1">
      <feOffset dx="1" dy="1" in="SourceAlpha" result="shadowOffsetInner" />
      <feGaussianBlur stdDeviation="2.5" in="shadowOffsetInner" result="shadowGaussian" />
      <feComposite in2="shadowGaussian" operator="atop" in="SourceAlpha" result="shadowComposite" />
      <feColorMatrix type="matrix" values="0 0 0 0 0  0 0 0 0 0  0 0 0 0 0  0 0 0 0.698039215686274 0  " in="shadowComposite" />
    </filter>
    <g id="widget2">
      <path d="M 118 98.0369284683536  C 112.2 88.4073405959099  103.5 82.6295878724437  103.5 73  C 103.5 67.9857142857143  106.4 59.5  118 59.5  C 129.6 59.5  132.5 67.9857142857143  132.5 73  C 132.5 82.6295878724437  123.8 88.4073405959099  118 98.0369284683536  Z " fill-rule="nonzero" fill="#009dd9" stroke="none" />
      <path d="M 118 99  C 112 89  103 83  103 73  C 103 67.8  106 59  118 59  C 130 59  133 67.8  133 73  C 133 83  124 89  118 99  Z M 118 97.0738569367072  C 123.6 87.8146811918198  132 82.2591757448874  132 73  C 132 68.1714285714286  129.2 60  118 60  C 106.8 60  104 68.1714285714286  104 73  C 104 82.2591757448874  112.4 87.8146811918198  118 97.0738569367072  Z " fill-rule="nonzero" fill="#ffffff" stroke="none" />
    </g>
  </defs>
  <g transform="matrix(1 0 0 1 -99 -55 )">
    <use xlink:href="#widget2" filter="url(#filter1)" />
    <use xlink:href="#widget2" />
  </g>
</svg>