<?xml version="1.0" encoding="utf-8"?>
<svg version="1.1" xmlns:xlink="http://www.w3.org/1999/xlink" width="41px" height="41px" xmlns="http://www.w3.org/2000/svg">
  <g transform="matrix(1 0 0 1 -24 -261 )">
    <path d="M 44.5 261  C 55.98 261  65 270.02  65 281.5  C 65 292.98  55.98 302  44.5 302  C 33.02 302  24 292.98  24 281.5  C 24 270.02  33.02 261  44.5 261  Z " fill-rule="nonzero" fill="#ffffff" stroke="none" />
    <path d="M 44.5 261.5  C 55.7 261.5  64.5 270.3  64.5 281.5  C 64.5 292.7  55.7 301.5  44.5 301.5  C 33.3 301.5  24.5 292.7  24.5 281.5  C 24.5 270.3  33.3 261.5  44.5 261.5  Z " stroke-width="1" stroke="#797979" fill="none" />
  </g>
</svg>